<svg id="e8ab07fb-aa66-4eb8-9149-b5abc1630568" xmlns="http://www.w3.org/2000/svg" viewBox="0 0 753.09 555.47"><defs><style>.cls-1,.cls-2,.cls-3,.cls-4,.cls-5,.cls-6{fill:#ffac3e;}.cls-1{opacity:0.3;}.cls-2{opacity:0.5;}.cls-3{opacity:0.7;}.cls-4{opacity:0.8;}.cls-5{opacity:0.9;}.cls-7{fill:#bc2a2a;}.cls-8{fill:#d31313;}.cls-9{fill:#d83535;}.cls-10{fill:#ea5757;}.cls-11{fill:#f26868;}.cls-12{fill:#d38181;}.cls-13{fill:#6e9fc4;}.cls-14{fill:#2d8ac4;}.cls-15{fill:#2c6b99;}.cls-16{fill:#1c71af;}.cls-17{fill:#10578c;}.cls-18{fill:#084072;}.cls-19{fill:#bfbfbf;}.cls-20{fill:#2f2e41;}.cls-21{fill:#ffb8b8;}.cls-22{fill:#507dff;}.cls-23{fill:#3f3d56;}.cls-24{opacity:0.3;isolation:isolate;}</style></defs><circle class="cls-1" cx="30" cy="34" r="30"/><circle class="cls-2" cx="120" cy="34" r="30"/><circle class="cls-3" cx="210" cy="34" r="30"/><circle class="cls-4" cx="300" cy="34" r="30"/><circle class="cls-5" cx="390" cy="34" r="30"/><circle class="cls-6" cx="478.03" cy="34" r="30"/><circle class="cls-7" cx="30" cy="144" r="30"/><circle class="cls-8" cx="120" cy="144" r="30"/><circle class="cls-9" cx="210" cy="144" r="30"/><circle class="cls-10" cx="300" cy="144" r="30"/><circle class="cls-11" cx="390" cy="144" r="30"/><circle class="cls-12" cx="478.03" cy="144" r="30"/><circle class="cls-13" cx="30" cy="254" r="30"/><circle class="cls-14" cx="120" cy="254" r="30"/><circle class="cls-15" cx="210" cy="254" r="30"/><circle class="cls-16" cx="300" cy="254" r="30"/><circle class="cls-17" cx="390" cy="254" r="30"/><circle class="cls-18" cx="478.03" cy="254" r="30"/><rect class="cls-19" y="74.4" width="60" height="6.48"/><rect class="cls-19" x="103.42" y="74.4" width="33.17" height="6.48"/><rect class="cls-19" x="191.65" y="74.4" width="37.16" height="6.48"/><rect class="cls-19" x="275.59" y="74.4" width="48.82" height="6.48"/><rect class="cls-19" x="367.33" y="74.4" width="45.35" height="6.48"/><rect class="cls-19" x="467.48" y="74.4" width="21.1" height="6.48"/><rect class="cls-19" x="9.83" y="184" width="40.33" height="6.48"/><rect class="cls-19" x="105.03" y="184" width="29.94" height="6.48"/><rect class="cls-19" x="180.46" y="184" width="59.54" height="6.48"/><rect class="cls-19" x="274.64" y="184" width="50.73" height="6.48"/><rect class="cls-19" x="363.77" y="184" width="52.47" height="6.48"/><rect class="cls-19" x="461.74" y="184" width="32.56" height="6.48"/><rect class="cls-19" x="9.83" y="294" width="40.33" height="6.48"/><rect class="cls-19" x="93.73" y="294" width="52.54" height="6.48"/><rect class="cls-19" x="187.55" y="294" width="45.35" height="6.48"/><rect class="cls-19" x="272.86" y="294" width="54.27" height="6.48"/><rect class="cls-19" x="375.67" y="294" width="28.65" height="6.48"/><rect class="cls-19" x="456.94" y="294" width="42.17" height="6.48"/><path class="cls-20" d="M736.64,206.68C726.35,189.14,706,188.33,706,188.33s-19.83-2.56-32.56,24.14c-11.86,24.9-28.22,48.93-2.63,54.76l4.62-14.51,2.86,15.59a100.18,100.18,0,0,0,11,.19c27.4-.89,53.51.26,52.67-9.66C740.79,245.65,746.54,223.55,736.64,206.68Z" transform="translate(-46.62 -51.71)"/><path class="cls-21" d="M639.07,300.31l-9,23-45,42s-27,20-15,26,23-22,23-22l48-29,10-33Z" transform="translate(-46.62 -51.71)"/><polygon class="cls-21" points="607.45 503.59 616.45 526.59 629.45 526.59 618.45 499.59 607.45 503.59"/><polygon class="cls-21" points="646.45 513.59 655.45 536.59 668.45 536.59 657.45 509.59 646.45 513.59"/><path class="cls-20" d="M692.07,569.31l17-4-22-89,7.3-68.48.2,0s12.5-48.5,2.5-61.5-60-8-60-8-19,19-18,62,0,80,7,97,27,62,27,62l16-2-17-74L649.35,419c2.16,25.78,6.52,74.66,8.72,78.33C661.07,502.31,692.07,569.31,692.07,569.31Z" transform="translate(-46.62 -51.71)"/><path class="cls-21" d="M743.07,321.31l7,25,31,56s27,24,16,27-28-22-28-22l-35-49-9-36Z" transform="translate(-46.62 -51.71)"/><circle class="cls-21" cx="660.45" cy="173.59" r="25"/><path class="cls-21" d="M694.07,238.31l-6,19-10,22,37-15s-2-16,0-20Z" transform="translate(-46.62 -51.71)"/><path class="cls-22" d="M737.07,278.31l-23-19-26,11,1-16.23-27.74,8.86-4.28,1.37-6,31s-4,3-8,20a146.48,146.48,0,0,1-10,29s43-17,64,6c0,0,3-2,2-5s9-18,9-18,0,3,4-3,7-7,7-7Z" transform="translate(-46.62 -51.71)"/><path class="cls-22" d="M663.07,267.31l-4.37-3.53s-3.63-1.47-6.63,3.53-18,36-18,36l18,9Z" transform="translate(-46.62 -51.71)"/><path class="cls-22" d="M723.07,277.31l14,1s8,4,8,10,2,38,2,38l-22,7-9-28Z" transform="translate(-46.62 -51.71)"/><path class="cls-20" d="M660.18,574.81l-17,7s-20,1-17,11,33,3,33,3,27,1,27-6-4-15-8-15Z" transform="translate(-46.62 -51.71)"/><path class="cls-20" d="M698.18,583.81l-17,7s-20,1-17,11,33,3,33,3,27,1,27-6-4-15-8-15Z" transform="translate(-46.62 -51.71)"/><polygon class="cls-20" points="685.48 153.27 665.36 142.65 637.59 147 631.85 172.59 646.15 172.04 650.15 162.63 650.15 171.88 656.75 171.63 660.58 156.66 662.97 172.59 686.43 172.11 685.48 153.27"/><path class="cls-23" d="M597.58,83.55A135,135,0,1,0,605.24,283L770.85,422.7a12.45,12.45,0,1,0,16.07-19h0L621.28,263.93A135,135,0,0,0,597.58,83.55ZM586.9,250.47a101.16,101.16,0,1,1-12.07-142.54h0A101.14,101.14,0,0,1,586.9,250.47Z" transform="translate(-46.62 -51.71)"/><path class="cls-24" d="M444.36,262.55a101.16,101.16,0,0,1-17.17-136q-2.9,2.92-5.61,6.12A101.16,101.16,0,1,0,576.2,263.15c1.81-2.13,3.5-4.32,5.09-6.56A101.15,101.15,0,0,1,444.36,262.55Z" transform="translate(-46.62 -51.71)"/></svg>